<?xml version="1.0" encoding="UTF-8"?>
<!DOCTYPE svg PUBLIC "-//W3C//DTD SVG 1.1//EN" "http://www.w3.org/Graphics/SVG/1.1/DTD/svg11.dtd">
<!-- Creator: CorelDRAW 2019 (64-Bit) -->
<svg xmlns="http://www.w3.org/2000/svg" xml:space="preserve" width="2.66666in" height="2.66666in" version="1.1" style="shape-rendering:geometricPrecision; text-rendering:geometricPrecision; image-rendering:optimizeQuality; fill-rule:evenodd; clip-rule:evenodd"
viewBox="0 0 2666.66 2666.66"
 xmlns:xlink="http://www.w3.org/1999/xlink">
 <defs>
  <style type="text/css">
   <![CDATA[
    .fil4 {fill:black}
    .fil1 {fill:#010101}
    .fil3 {fill:#6D6D6D}
    .fil2 {fill:#9B9B9B}
    .fil0 {fill:white}
    .fil6 {fill:black;fill-rule:nonzero}
    .fil5 {fill:indigo;fill-opacity:0.380392}
   ]]>
  </style>
 </defs>
 <g id="Layer_x0020_1">
  <metadata id="CorelCorpID_0Corel-Layer"/>
  <g id="_2714670785984">
   <path class="fil0" d="M460.08 2432.18c2.77,1.51 1.23,13.41 1.31,17.17 2.95,-1.55 -0.07,0.71 3.18,-2.03 4.96,-4.17 12.72,-14.13 20.04,-19.28 19.86,1.86 37.35,-4.8 45.69,-15.03 10.82,-13.3 11.53,-27.72 11.02,-49.14 -0.46,-19.2 -10.04,-32.3 -21.02,-39.06 -15.96,-9.83 -32.74,-7.24 -52.89,-7.24 -20.49,0 -37.41,-0.85 -50.62,10.65 -11.96,10.4 -16.41,21.47 -16.4,43.72 0.02,20.65 3.43,35.67 14.99,45.1 24.09,19.67 40.75,4.87 44.71,15.12z"/>
   <path class="fil1" d="M484.61 2428.05c-3.07,4.41 -8,8.5 -11.38,11.85 -3.37,3.34 -8.15,9.72 -12.42,11.17l-0.73 -18.88c-3.96,-10.25 -20.62,4.55 -44.71,-15.12 -11.56,-9.44 -14.98,-24.45 -14.99,-45.1 -0.01,-22.25 4.44,-33.32 16.4,-43.72 13.22,-11.49 30.13,-10.65 50.62,-10.65 20.15,0 36.93,-2.59 52.89,7.24 10.98,6.76 20.56,19.85 21.02,39.06 0.51,21.42 -0.2,35.84 -11.02,49.14 -8.33,10.23 -25.83,16.89 -45.69,15.03zm-46.22 9.41l13.18 0.78c-0.07,21.57 -2.43,21.89 3.18,29.93 5.67,0.44 16.2,-12.51 20.06,-16.35 15.9,-15.81 10.06,-13.09 23.63,-13.58 22.35,-0.79 38.45,-14.61 45.95,-28.43 8.3,-15.3 10.2,-46.34 3.93,-64.76 -5.96,-17.49 -19.78,-30.78 -38.89,-35.8 -9.31,-2.44 -62.07,-2.69 -72.55,-1.01 -20.12,3.24 -35.61,17.41 -41.94,32.67 -6.84,16.46 -7.07,48.82 0.46,65.08 6.16,13.28 23.46,31.41 42.99,31.47z"/>
   <path class="fil2" d="M460.08 2432.18l0.73 18.88c4.28,-1.44 9.06,-7.83 12.42,-11.17 3.37,-3.35 8.3,-7.44 11.38,-11.85 -7.32,5.15 -15.08,15.1 -20.04,19.28 -3.25,2.74 -0.23,0.48 -3.18,2.03 -0.08,-3.76 1.46,-15.67 -1.31,-17.17z"/>
   <path class="fil3" d="M454.74 2468.18c-5.61,-8.04 -3.26,-8.36 -3.18,-29.93l-13.18 -0.78c3.8,1.98 7.66,1.69 11.83,1.09l0.52 26.57c0.46,0.4 1.26,1.18 1.54,1.41 1.59,1.25 0.31,0.35 2.47,1.65z"/>
  </g>
  <g id="_2714670778208">
   <path class="fil0" d="M1156.33 584.92c3.96,13.45 19.72,68.36 24.87,76.05 7.67,-0.18 125.96,-37.14 132.37,-41.36 -0.14,-9.26 -18.45,-63.37 -22.85,-76.69 -9.93,8.23 -49.26,57.77 -55.13,59.66 -5.15,1.65 -66.83,-16.59 -79.26,-17.67z"/>
   <path class="fil1" d="M1156.33 584.92c12.44,1.08 74.12,19.32 79.26,17.67 5.87,-1.89 45.2,-51.43 55.13,-59.66 4.4,13.31 22.7,67.43 22.85,76.69 -6.41,4.22 -124.7,41.18 -132.37,41.36 -5.15,-7.69 -20.91,-62.6 -24.87,-76.05zm12.57 -45.43l85.98 -26.88 12.82 40.96c-12.04,10.26 -22.89,28.02 -35.37,38.56 -16.26,-1.56 -35.28,-9.98 -51.09,-11.55l-12.35 -41.09zm102.39 -8.46c4.13,0.12 8.29,2.24 12.15,4.14l-8.24 8.43 -3.91 -12.57zm-113.26 42.84c2.01,-3.28 4.15,-7.32 7.52,-9.8l3.88 13.02 -11.4 -3.22zm40.37 -56.8l1.46 -1.17 1.44 -1.08 0.63 -2.4 1.25 -1.35c3.38,-2.93 2.57,-2.67 7.01,-2.19l1.8 0.39 1.88 1.62 1.8 0.07 1.87 0.13c2.31,0.85 0.19,-3.55 2.93,2.49l-22.78 6.92c-1.36,-5.83 -0.85,-1.87 0.72,-3.43zm-36.78 34.36c-17.94,27.65 -21.09,17.1 -14.51,37.89 5.67,17.91 11.21,35.87 16.81,53.8 11.81,37.82 7.56,32.59 86.8,7.83 79.17,-24.73 78.75,-17.97 66.91,-55.86 -5.71,-18.29 -11.53,-36.58 -17.15,-54.9 -4.25,-13.88 -3.74,-12.46 -14.83,-15.55 -5.06,-1.4 -13.84,-4.4 -18.13,-6.31l-6.51 -16.91c-14.26,-0.25 -15.93,8.94 -32.19,3.8 -33.49,-10.58 -21.56,-14.31 -43.06,13.45 -10.42,13.45 -16.2,6.64 -29.1,15.33l4.95 17.43z"/>
   <path class="fil0" d="M1181.25 580.58c15.81,1.57 34.83,9.99 51.09,11.55 12.48,-10.54 23.33,-28.3 35.37,-38.56l-12.82 -40.96 -85.98 26.88 12.35 41.09z"/>
   <path class="fil0" d="M1203.17 511.07c0.58,1.86 0.82,1.28 -1.25,1.35l-0.63 2.4 -1.44 1.08 -1.46 1.17c2.29,1.52 -1.04,2.53 10.19,-0.98 12.29,-3.84 7.43,-2.39 8.94,-5l-1.87 -0.13 -1.8 -0.07 -1.88 -1.62c-1.74,1.13 -1.22,1.47 -1.8,-0.39 -4.44,-0.48 -3.63,-0.74 -7.01,2.19z"/>
   <path class="fil0" d="M1275.2 543.59l8.24 -8.43c-3.87,-1.91 -8.03,-4.02 -12.15,-4.14l3.91 12.57z"/>
   <path class="fil0" d="M1158.03 573.87l11.4 3.22 -3.88 -13.02c-3.37,2.48 -5.51,6.52 -7.52,9.8z"/>
   <path class="fil3" d="M1201.3 514.82l-1.44 1.08 -1.46 1.17c-1.57,1.56 -2.08,-2.39 -0.72,3.43l22.78 -6.92c-2.74,-6.04 -0.61,-1.64 -2.93,-2.49l-1.87 -0.13 -1.8 -0.07 -1.88 -1.62 -1.8 -0.39c0.58,1.86 0.05,1.52 1.8,0.39l1.88 1.62 1.8 0.07 1.87 0.13c-1.51,2.61 3.35,1.16 -8.94,5 -11.23,3.51 -7.91,2.49 -10.19,0.98l1.46 -1.17 1.44 -1.08 0.63 -2.4c2.07,-0.07 1.83,0.52 1.25,-1.35l-1.25 1.35 -0.63 2.4z"/>
  </g>
  <path class="fil4" d="M1534.01 2293.26l-3.55 1.94c-2.4,7.6 -24.07,28.4 -31.7,33.32 -3.49,4.62 -2.08,2.62 -5.62,4.29 -2.56,7.55 -23.71,27.15 -29.64,30.96l-3.55 1.95c-2.4,7.59 -24.08,28.39 -31.7,33.31 -3.49,4.62 -2.08,2.62 -5.62,4.29 -4.02,11.87 -22.45,23.31 -34.07,26.5 -13.46,2 -23.7,0.94 -30.41,-7.96 -8.73,-1.2 -0.56,2.7 -13.93,-11.07l-35.26 -35.26c-13.67,-13.62 -41.78,-31.39 -28.35,-63.14 6.85,-16.21 77.73,-82.25 94.11,-98.65 30.28,-30.36 53.09,-66.54 88.1,-55.5 13.36,4.22 63.58,57.94 74.36,69.02 22.75,23.39 18.34,52.15 -3.17,66zm-176.55 -194.07c-3.85,7.25 -23.47,27.43 -30.59,33.87 -17.84,16.15 -81.88,84.7 -94.91,91.64 -4.72,14.99 -39.21,37.33 -68.8,5.2 -44.54,-48.37 -99.79,-75.66 -52.31,-122.54 18.3,-18.07 34.71,-34.67 52.91,-52.86 18.59,-18.6 35.47,-35.46 54.06,-54.06 12.13,-12.13 38.91,-43.02 70.16,-22.31 6.74,4.46 19.89,20.13 27.01,27.09 10.41,10.19 46.43,43.48 50.37,55.23 4.22,12.53 2.82,33.5 -7.88,38.74zm-175.5 -186.45c-4.7,14.83 -16.81,22.53 -26.59,32.31l-83.44 83.44c-41.76,41.77 -58.73,56.67 -102.9,7.73 -21.25,-23.56 -82.61,-63.15 -44.7,-101.28l111.9 -111.39c6.69,-6.69 21.25,-23.08 28.97,-27.48 10.39,-5.93 34.6,-8.09 43.03,5.41 9.24,2.62 40.96,37.85 50.43,47.44 14.48,14.65 36.28,29.49 26.91,58.34 -3.14,9.66 -0.77,3.77 -3.61,5.48zm-372.3 -42.95c-7.27,-3.87 -12.82,-9.93 -18.02,-15.88l-11.69 -11.69c-8.15,-7.13 -16.44,-15.43 -23.56,-23.57 -10.76,-8.61 -24.09,-19.83 -23.26,-42.14 0.73,-19.75 15.8,-32.9 25.66,-39.83l4.71 -4.93 28.14 -28.15 7.12 -7.11 28.14 -28.14 7.11 -7.11 28.15 -28.15c17.24,-25.03 46.7,-39.75 76.85,-8.75 10.76,11.06 18.74,20.67 30.24,30.77 8.06,7.09 23.74,22.66 29.43,31.97 9.11,5.2 10.44,26.76 5.65,38.83 -4.33,10.93 -16.19,21.59 -23.13,28.52l-104.6 104.6c-8.61,8.67 -15,17.02 -30.54,21.05 -12.62,3.28 -32.29,0.46 -36.4,-10.29zm276.44 -555.92c-1.95,-2.61 -0.27,1.3 -2.9,-5.14 -6.64,-16.27 -0.67,-36.6 -0.16,-40.69 0.12,-0.93 0.56,-1.13 0.95,-1.61 -0.99,-10.36 5.84,-33.64 13.25,-37.67 2.93,-8.02 0.34,-8.13 8.29,-11.11 1.41,-9.68 6.8,-10.77 14.21,-18.04 6.11,-5.99 10.39,-10.42 16.44,-16.47l164.53 -164.53c12.04,-12.03 53.74,-59.12 67.41,-60.93 2.24,-5.11 0.53,-3.39 5.63,-5.63 2.85,-8.39 25.09,-27.46 31.98,-29.62 2.24,-5.11 0.52,-3.4 5.63,-5.64 2.72,-7.98 25.04,-27.46 31.97,-29.62 5.63,-11.18 9,-13.13 20.52,-18.22 0.5,-5.19 3.84,-5.84 10.38,-10.5l39.28 -26.59c12.46,-7.48 43.45,-26.01 57.35,-28.5l13.19 -6.9c4.12,-1.61 9.51,-3.66 13.69,-5.14 17.44,-5.21 64.15,-22.48 81.87,-20.23 2.39,-1.53 -0.64,-0.52 5.5,-2.58 1.44,-0.48 4.56,-1.16 6.12,-1.43 4.14,-0.71 9.02,-0.91 13.45,-1.29 38.28,-5.38 75.93,-4.28 114.19,-0.31 4.88,0.58 10.09,0.82 14.56,1.62 1.78,0.31 4.46,0.89 6.17,1.43 7.1,2.22 2.91,0.89 5.52,2.57 24.27,-2.92 94.26,25.65 116.56,35.13 31.83,13.53 70.22,38.44 93.52,56.8 21.96,17.31 59.66,50.81 76.82,73.63 12.7,16.89 54.49,71.43 58.09,91.21 5.26,5.54 4.06,4.88 7.34,12.73 2.23,5.32 3.05,7.02 4.44,12.51 7.88,13.48 27.09,70.91 25.2,85.86 1.82,2.53 0.38,-1.07 2.8,5.22 0.14,0.37 1.13,3.47 1.2,3.79 0.89,3.6 0.95,7.35 1.3,11.35 8.65,57.01 8.43,112.27 -1.99,168.48 -4.56,24.6 -33.63,124.93 -47.12,131.31 -2.81,8.51 0.03,4.55 -5.8,9.34 -1.05,7.22 -6.17,15.31 -10.33,21.3 -8.26,14.01 -16.92,25.87 -25.96,37.87 -5.13,6.82 -8.59,9.78 -13.96,16.59 -6.5,8.22 -5.8,10.07 -16.21,15.32l-3.14 5.48c-11.23,-5.54 -228.34,-226.26 -243.2,-241.12 -40.93,-40.91 -79.95,-80.28 -121.02,-121.07 -40.69,-40.4 -79.54,-82.45 -121.13,-120.99 -35.96,-33.32 -55.45,-7.56 -77.64,14.07 -20.79,20.27 -39.37,39.39 -59.91,59.94 -40.83,40.83 -79.89,80.74 -121.16,120.94 -21.17,20.61 -40.1,40.35 -60.99,61.22 -17.8,17.79 -37.7,41.82 -66.75,53.09 -36.68,14.23 -69.58,8.09 -100.33,-8.07 -15.69,-8.25 -51.89,-44.48 -49.63,-69.16zm164.11 -366.84l-9.34 9.33 -25.91 25.92 -9.34 9.34 -25.92 25.92 -9.34 9.33 -25.91 25.92 -9.34 9.34 -25.92 25.92 -9.38 9.68c-5.89,9.54 -19.65,21.38 -28.5,29.91 -7.49,7.22 -19.85,23.67 -28.8,26.7l-1.94 3.56c-3.35,8.25 -13.84,20.93 -20.09,31.81 -34.02,59.22 -18.98,107.91 -22.66,127.89 0.39,0.55 0.76,1.32 0.98,1.76l3.99 11.12c1.19,4.43 1.8,6.82 3.02,11.01 12.25,37.13 24.46,53.11 45.1,76.85 7.78,8.94 20.93,20.03 32.74,28.49 12.41,8.9 24.52,13.47 38.8,21.67 5.68,1.3 9.17,2.95 14.55,4.66 3.07,0.98 4.09,1.01 7.28,2.37 6.38,2.75 2.55,1.06 5.13,3.02 12.94,-1.55 28.94,4.09 44.12,4.26 14.87,0.16 28.98,-1.21 43.3,-4 72.34,-14.09 112.98,-67.42 164.96,-119.39l189 -188.63c8.97,7.18 116.37,115.45 120.66,124.41 7.17,3.82 8.86,5.52 12.69,12.69 7.77,3.71 29.02,26.2 37.41,34.5l106.38 109.87c11.36,11.41 26.32,25.04 37.07,35.78l105.12 108.77c26.54,26.6 48.95,48.61 73.04,72.7 41.78,41.79 19.55,59.95 -9.57,89.06 -11.14,11.14 -43.04,47.15 -56.38,51.69 -11.4,3.88 -21.64,3.31 -31.52,-1.01 -16.7,-7.32 -118.47,-114.94 -147.34,-141.76 -24.15,-22.43 -50.91,-46.38 -72.8,-70.53 -14.7,-16.2 -56.85,-62.69 -77.05,-66.38 -41.6,-7.61 -67.83,42.33 -34.74,74.75 12.89,12.63 23.99,23.69 37,35.9 42.35,39.71 98.03,100.23 144.7,142.07 13.25,11.88 22.13,21.09 34.95,35.48 26.17,29.35 68.39,52.84 51.78,86.29l-4.39 8.24c-5.43,9.73 -36.74,37.79 -46.35,47.4 -12.71,12.71 -28.74,38.49 -58.81,30.98 -19.26,-4.81 -39.68,-29.89 -51.88,-42.1 -28.07,-28.07 -217.91,-215.56 -230.74,-231.94 -8.8,-3.48 -16.67,-6.72 -28.53,-7.48 -23.43,1.76 -42.24,15.8 -43.45,40.33 -1.67,33.67 22.31,31.62 30.12,52.4 9.2,3.71 8.98,3.48 12.69,12.69l220.33 218.26c12.76,12.41 10.22,6.73 12.72,14.63 9.11,10.13 9.73,27.94 3.18,39.3 -3.78,9.85 -19.71,24.67 -26.78,29.22 -3.48,4.62 -2.08,2.62 -5.61,4.29 -2.3,6.76 -7.36,10.02 -13.63,16.28 -5.65,5.64 -9.63,10.58 -16.01,14.69l-3.54 1.94c-2.54,8.08 -19.17,24.08 -28.42,29.15 -8.08,6.01 -14.7,6.59 -27.01,6.73 -4.73,-9.08 -8.98,-8.81 -13.52,-18.86l-11.69 -11.69 -23.56 -23.56 -11.69 -11.69c-7.08,-4.95 -13.58,-12.29 -18.81,-19.02 -7.46,-3.26 -17.05,-13.98 -36.72,-21.89 -15.97,-6.41 -28.58,-7.14 -46.62,-9.78 -6.54,-42.39 -15.34,-49.2 -16.87,-59.84 -8.13,-5.24 -4.28,-1.81 -8.16,-11.69 -4.96,-0.9 0.09,2.55 -5.24,-3.81 -19.57,-23.36 -41.57,-43.52 -63.7,-65.74l-24.66 -22.17c-6.27,-1.91 -3.48,0.61 -7.22,-5.55 -11.15,-1.05 -26.98,-10.72 -46.07,-12.87 -7.32,-0.85 -7.83,1.29 -8.28,-5.03 -1.94,-14.04 -10.45,-40.49 -10.61,-47.07 -6.58,-5.54 -6.66,-8.41 -11.32,-15.45 -4.1,-6.2 -7,-8.12 -11.82,-13.87 -8.2,-9.77 -17.99,-16.8 -24.77,-27.09l-11.7 -11.69c-10.5,-7.35 -17.86,-17.48 -27.7,-26.44 -4.64,-4.23 -8.26,-7.26 -13.94,-11.83 -5.56,-4.46 -10.67,-6.07 -15.95,-11.11 -18.19,-3.31 -10.72,-8.33 -56.32,-13.06 -4.61,-19.59 -4.54,-28.84 -12.11,-46.66 -6.26,-14.76 -15.88,-23.97 -21.9,-34.64l-1.94 -3.55c-2.75,-1.32 -0.91,0.13 -5.13,-3.35l-62.1 -63.87c-4.31,-1.89 -1.65,1.35 -5.91,-4.29 -26.7,-13.5 -41.03,-31.4 -91.11,-26.52 -59.75,5.81 -79.7,42.42 -108.36,67.34l-87.91 87.88c-5.74,-5.12 -11.7,-9.28 -14.91,-16.29 -10.24,-5.82 -72.12,-70.31 -85.84,-84.03 -19.77,-19.78 -65.65,-63.5 -78.19,-91.7 -11.57,-14 -49.43,-84.66 -49.96,-104.56 -7.39,-6.6 -10.42,-25.52 -12.92,-36.28 -15.31,-65.31 -19.79,-123 -9.41,-192.93 1.98,-16.92 4.08,-15.56 4.35,-17.46 0.15,-0.99 0.62,-1.2 1.02,-1.74 -1.37,-10.05 9.41,-50.37 13.49,-55.93 3.73,-14.36 11.63,-44.6 22.39,-52.83 0.8,-14.48 13.1,-29.79 19.82,-41.28 3.25,-5.55 17.19,-31.26 23.35,-32.81 4,-9.31 2.8,-6.76 8.87,-14.82 5.54,-7.35 2.96,-5.85 11.41,-10.39 1.06,-6.57 1.37,-8.08 8.75,-10.82 3.71,-6.97 3.19,-6.44 10.05,-10.34 1.43,-4.83 -0.38,-1.81 3.73,-7.42 0.07,-0.07 4.22,-4.53 4.52,-4.81 4.76,-4.53 6.79,-6.28 12.25,-7.98 5.17,-10.25 5.17,-8.93 13.9,-15.25 9.31,-6.76 6.01,-7 18.37,-12.37 0.54,-5 2.05,-4.31 9.33,-9.22 1.11,-0.75 5.66,-3.67 5.74,-3.7 5.2,-2.78 0.58,-1.34 6.15,-2.38l3.43 -6.19 8.26 -2c4.61,-8.13 60.53,-37.59 74.09,-38.6 4.86,-6.13 14.63,-8.91 22.9,-10.57 25.04,-12.2 76.07,-22.3 107.27,-26.14 37.06,-4.56 88.04,-4.45 123.74,2.42l22.71 5.58c26.27,-3.4 113.68,35.79 135.93,48.19l4.51 2.28c23.84,15.14 42.54,26.2 62.46,41.69 14.14,11 45.44,36.67 51.24,48.84 7.18,3.81 8.87,5.51 12.69,12.69 2.39,1.03 0.67,-1.94 4.54,2.87 -5.37,7.24 -14.61,17.1 -22.47,21.73zm-522.07 -248c-4.98,4.74 -29.5,13.37 -35.82,15l-12.36 4.67 -24.62 11.73c-4.16,4.86 -21.37,12.71 -28,16.7l-80.48 55.99c-12.94,16.45 -27.56,24.48 -40.74,38.97 -7.56,8.3 -9.52,12.51 -18.51,21.41l-16.89 19.71c-40.43,50.67 -75.16,113.3 -97.86,187.74 -41.83,137.25 -13.12,227.61 -16.67,253.69 1.64,2.51 0.57,-0.13 2.6,5.35 1.42,3.85 0.35,0.59 1.22,3.87 1.16,4.42 1.2,6.28 1.75,11.14l17.69 69.49c3.02,3.44 -0.45,-1.74 3.29,4.48l9.63 23.58c13.66,35.58 34.98,71.85 54.66,100.2l42.56 56.29 144.46 144.61c10.03,9.77 11.47,7.87 9.52,25.59 -1.34,12.3 1.49,25.89 -0.65,37.22l2.75 5.24c1.17,2.68 1.25,3.1 1.98,5.38 1.54,4.77 2.02,6.98 2.98,11.64 2.35,4 4.22,8 6.32,11.88 1.67,3.08 2.06,3.5 3.1,6.07 2.42,5.98 0.3,-3.15 1.37,4.98 8.44,4.98 6.69,4.18 9.73,13.27 10.3,3.49 57.48,54.39 67.69,65.3 28.91,30.89 37.42,32.83 89.63,42.04 3.67,33.17 10.72,36.72 11.64,48.62 6.78,5.09 5.86,6.31 9.77,12.14 4.72,7.03 4.18,5.36 7.78,13.65 5.17,0.48 6.57,4.4 11.39,9.52l73.04 72.56c8.22,3.37 10.79,3.22 15.81,10.81l48.66 11.86c9.96,36.15 4.56,38.61 24.69,69.28 8.83,13.46 33.39,34.54 45.2,46.52 45.55,46.23 46.05,59.96 115.82,69.44l5.97 33.25 3.89 6.69c0.27,0.53 0.53,1.15 0.8,1.69l11.75 23.3c4.2,2.08 17.75,18.08 22.2,22.52 8.41,8.39 15.12,15.07 23.52,23.49 7.9,7.94 42.52,39.2 46.01,45.72 29.86,12.07 7.42,7.67 51.76,21.07l5.66 2.18c0.34,-0.54 1.25,0.51 1.81,0.86l29.58 0c0.56,-0.35 1.46,-1.41 1.8,-0.87l29.15 -9.45c3.27,-1.15 4.69,-2.04 8.17,-3.36 8.06,-3.07 1.97,-1.67 8.43,-2.46 3.98,-5.26 2.49,-3.76 7.73,-7.24 5.2,-3.44 5.45,-3.22 11.01,-5.67 0.65,-7.04 131.68,-132.24 149.28,-151.6l8.02 -8.04c3.5,-9.99 7.79,-15.37 11.61,-26.14 3.06,-8.59 4,-17.09 6.16,-27.02l30.5 -8.15c33.57,-15.72 48.18,-34.18 69.7,-55.93 9.44,-9.54 56.26,-59.35 63.83,-62.16 2.21,-7.67 -0.52,-7.22 7.59,-10.34 0.67,-8.25 3.76,-11.55 7.72,-19.53 2.17,-6.44 4.72,-12.56 6.47,-19.76 1.76,-7.2 1.35,-12.88 4.67,-21.22 17.11,-0.78 29.06,-4.19 43.34,-8.54 16.97,-5.67 26.18,-15.13 37.75,-23.02 3.81,-6.96 2.45,-6.31 9.05,-9.87l25.92 -25.91 9.33 -9.34c5.33,-8.26 14.85,-19.13 23.23,-22.88 3.76,-7.25 4.43,-9.07 12.55,-14.12l11.58 -19.19 6.69 -21.04 6.34 -26.9 19.33 -0.75c2.54,-1.95 0.16,-0.67 5.1,-3.07 0.9,-0.44 4.18,-1.67 5.3,-2.07 3.59,-1.28 5.69,-1.83 8.79,-2.83 28.77,-11.07 43.94,-32.06 61.31,-49.01 18.35,-17.91 36.52,-35.34 53.82,-54.29 29.32,-32.13 37.17,-82.85 19.82,-125.26 -5.58,-13.63 -15.85,-25.3 -18.89,-34.16 8.67,-9.97 11.56,-16.22 17.81,-16.72 6.16,-10.63 9.33,-13.96 16.88,-23.31 5.31,-6.58 11.46,-14.82 17.18,-18.94 1.1,-5.9 25.91,-41.93 29.86,-49.21 10.51,-19.36 17.89,-32.15 26.98,-52.92 17.95,-41.04 28.25,-74.92 38.31,-121.3 0.53,-3.95 1.02,-8.45 1.96,-12.17l3.66 -9.37c-2.35,-13.4 1.93,-30.62 3.11,-44.56 1.41,-16.63 1.34,-32.31 1.17,-48.96 -0.26,-25.01 -8.13,-72.81 -6.12,-90.54 -4.24,-4.12 -5.11,-14.58 -6.13,-22.19 -6.76,-30.9 -15.98,-54.89 -23.8,-83.59l-15.85 -38.71c-0.78,-0.75 -41.37,-82.14 -83.63,-125.57 -4.96,-5.09 -8.85,-10.02 -12.56,-15.83 -7.52,-4.95 -1.97,0.61 -6.91,-6.91l-68.34 -58.74c-13.66,-10.31 -23.72,-16.51 -37.81,-25.7 -6.66,-4.35 -36.05,-20.56 -37.59,-23.51 -6.31,-1.89 -2.83,0.08 -8.54,-3.02 -6.32,-3.44 -3.06,-2 -5.5,-4.89 -10.87,-0.27 -39.76,-15.8 -53.68,-20.71 -17.94,-6.32 -37.61,-12.57 -57.7,-17.72 -123.88,-31.74 -265.19,-17.53 -375.29,35.21l-23.31 11.68c-9.88,5.5 -19.42,10.36 -30.11,16.43 -18.75,10.64 -77.78,55.43 -78.47,55.71 -4.82,5.75 -2.05,3.21 -9.03,7.46 -0.55,5.91 -0.31,2.95 -5.74,8 -3.13,2.91 -4.45,4.13 -7.39,6.84 -5.28,4.84 -9.44,9.33 -15.13,12.94l-4.87 4.87c-4.13,6.59 -9.32,12.94 -16.66,16.39 -19.19,-22.76 -53.63,-54.36 -79.32,-75.26 -12.81,-10.44 -29.26,-22.1 -45.08,-32.48 -15.9,-10.42 -33.15,-18.6 -49.19,-27.96 -8.98,-3.57 -39.15,-16.68 -46.26,-21.89l-40 -13.88c-6.33,-1.28 -11.81,-2.69 -17.45,-4.16l-10.86 -3.76c-0.42,-0.2 -1.39,-0.22 -1.69,-1.04 -0.3,-0.82 -1.13,-0.7 -1.66,-1.11 -9.9,1.26 -59.59,-9.79 -76.89,-11.54 -57.23,-5.8 -110.15,-3.12 -166.52,7.88 -17.02,3.32 -62.07,17.76 -71.1,17.52z"/>
  <g id="_2714670770560">
   <path class="fil1" d="M2160.79 391.24c-9.97,-5.77 -21.57,-14.3 -30.59,-21.01l-86.7 -63.19 234.6 0.12 -87.98 64.02c-9.22,6.75 -19.56,14.41 -29.32,20.06zm135.53 102.85c-1.6,5.71 -2.12,6.48 -8.95,7.78l-242.4 0.34 -0.1 17.78 249.19 -0.77c25.29,-5.94 22.26,-27.78 22.25,-55.17 -0.01,-21.43 1.67,-145.55 -1.53,-156.44 -7.05,-23.96 -33.45,-20.18 -60.69,-20.18 -24.12,0 -219.16,-3.39 -233.2,3.46 -20.5,10.01 -15.82,37.28 -15.55,64.59l19.3 -0.25 0.25 -35.2 50.15 34.26c6.8,5.3 10.11,8.11 16.53,12.35l50.7 35.93c25.85,18.61 15.94,11.66 52.87,-10.81 10.86,-6.61 22.28,-16.81 33.49,-24.23l67.57 -47.5 0.09 174.07z"/>
   <polygon class="fil1" points="2005.65,472.08 2140.32,472.11 2141.51,452.65 2005.37,452.61 "/>
   <polygon class="fil1" points="2099.49,404.03 2047.48,404.35 2046.7,421.98 2100.84,421.96 "/>
   <polygon class="fil1" points="2005.4,519.15 2023.77,519.28 2023.71,500.81 2005.35,501.31 "/>
   <polygon class="fil1" points="2005.27,421.7 2023.18,422.06 2021.87,404.04 2005.56,404.05 "/>
   <polygon class="fil1" points="2193.52,452.63 2153.8,452.6 2153.44,472.06 2193.6,472.11 "/>
  </g>
  <path class="fil5" d="M1227.17 248.93c283.33,112.5 270.83,862.51 -229.17,683.34 -499.99,-179.17 -1295.79,411.43 -641.67,1008.33 2583.58,2051.8 2965.72,-2268.52 870.83,-1691.67z"/>
  <path class="fil6" d="M1609.4 2415.15c29.61,0 56.42,12.01 75.83,31.41 19.4,19.4 31.41,46.22 31.41,75.82 0,29.53 -12.01,56.31 -31.41,75.72l-0.11 0.11c-19.41,19.4 -46.19,31.41 -75.72,31.41 -29.61,0 -56.42,-12.01 -75.82,-31.41 -19.41,-19.41 -31.41,-46.22 -31.41,-75.83 0,-29.48 12.01,-56.25 31.41,-75.71l0.11 -0.11c19.46,-19.41 46.23,-31.41 75.71,-31.41zm35.8 71.44c-9.16,-9.16 -21.82,-14.83 -35.8,-14.83 -14.06,0 -26.71,5.63 -35.8,14.72l-0.11 0.11c-9.09,9.09 -14.72,21.74 -14.72,35.8 0,13.98 5.67,26.64 14.83,35.8 9.15,9.15 21.81,14.82 35.8,14.82 14.03,0 26.71,-5.64 35.86,-14.77 9.13,-9.15 14.77,-21.83 14.77,-35.86 0,-13.98 -5.67,-26.65 -14.82,-35.8z"/>
 </g>
</svg>
