<?xml version="1.0" encoding="UTF-8"?>
<!DOCTYPE svg PUBLIC "-//W3C//DTD SVG 1.1//EN" "http://www.w3.org/Graphics/SVG/1.1/DTD/svg11.dtd">
<!-- Creator: CorelDRAW 2019 (64-Bit) -->
<svg xmlns="http://www.w3.org/2000/svg" xml:space="preserve" width="1.66666in" height="1.66666in" version="1.1" style="shape-rendering:geometricPrecision; text-rendering:geometricPrecision; image-rendering:optimizeQuality; fill-rule:evenodd; clip-rule:evenodd"
viewBox="0 0 1666.66 1666.66"
 xmlns:xlink="http://www.w3.org/1999/xlink">
 <defs>
  <style type="text/css">
   <![CDATA[
    .fil0 {fill:indigo}
   ]]>
  </style>
 </defs>
 <g id="Layer_x0020_1">
  <metadata id="CorelCorpID_0Corel-Layer"/>
  <g id="_2756725848000">
   <path class="fil0" d="M569.59 366.66l-367.2 2.31 0 930.98 165.65 -1.89 0 -778.27c57.35,0 179.01,-6.57 225.81,11.45 55.75,21.47 85.12,69.51 86.33,143.39 3.23,196.37 -159.67,166.65 -293.72,166.65l107.89 150.14c211.11,16.38 351.85,-129.13 337.96,-338.98 -15.17,-229.11 -151.33,-284.17 -262.71,-285.78z"/>
   <path class="fil0" d="M899.19 513.7c39.76,34.32 293.38,-62.08 331.34,117.04 17.37,81.97 -6.95,155.11 -57.56,187.08 -64.98,41.04 -156.33,14.26 -232.58,24.51 8.87,11.85 28.07,39.37 39.31,55.04l294.11 402.63 190.46 0c-25.41,-45.65 -234.24,-307.41 -245.83,-334.81 40,-23.87 67.65,-32.75 100.26,-74.44 91.17,-116.57 90.35,-291.91 16.97,-399.33 -42.88,-62.78 -118.74,-115.28 -221.54,-122.88l-343.63 0c75.22,19.81 113.28,95.33 128.7,145.16z"/>
  </g>
 </g>
</svg>
